<?xml version="1.0" encoding="utf-8"?>
<!-- Generator: Adobe Illustrator 16.0.4, SVG Export Plug-In . SVG Version: 6.00 Build 0)  -->
<!DOCTYPE svg PUBLIC "-//W3C//DTD SVG 1.1//EN" "http://www.w3.org/Graphics/SVG/1.1/DTD/svg11.dtd">
<svg version="1.1" id="Layer_1" xmlns="http://www.w3.org/2000/svg" xmlns:xlink="http://www.w3.org/1999/xlink" x="0px" y="0px"
	 width="699px" height="304.5px" viewBox="336 137.5 699 304.5" enable-background="new 336 137.5 699 304.5" xml:space="preserve">
<text transform="matrix(1 0 0 1 608.8564 373.0488)" font-family="'BebasNeueBold'" font-size="231.492" letter-spacing="3">EDRA</text>
<g>
	<path d="M431.324,258.392c2.805-3.491,3.834-7.603,5.1-11.625c0.673-2.14,2.744-4.758,6.289-5.222
		c3.25-0.426,6.191,0.375,8.865,2.213c1.623,1.115,3.271,2.204,4.799,3.438c1.609,1.299,3.396,1.211,5.26,1.062
		c4.031-0.325,6.9-2.604,9.355-5.547c1.42-1.7,2.629-3.714,4.957-4.201c1.303-0.274,2.748-0.194,4.073,0.037
		c1.64,0.288,3.208,0.964,4.837,1.351c2.311,0.551,4.436-0.498,6.619-0.965c2.088-0.445,4.146-1.02,6.229-1.484
		c0.334-0.074,0.729,0.117,1.098,0.187c-0.244,0.327-0.42,0.813-0.744,0.955c-1.955,0.848-3.926,1.662-5.924,2.396
		c-1.352,0.496-2.215,1.377-2.615,2.727c-0.281,0.943-0.58,1.889-0.758,2.854c-0.264,1.422-0.947,2.524-2.176,3.276
		c-3.93,2.411-5.989,6.04-6.494,10.503c-0.209,1.848,0.064,3.771,0.292,5.641c0.176,1.461-0.004,2.74-0.822,3.984
		c-0.856,1.303-1.6,2.68-2.383,4.031c-1.423,2.455-1.878,5.124-1.196,7.842c0.564,2.258,1.301,4.518,2.307,6.609
		c1.668,3.479,4.748,5,8.482,5.479c3.049,0.392,6.098,0.851,9.104,1.476c2.102,0.438,2.691,1.291,2.875,3.432
		c0.246,2.861,0.451,5.727,0.635,8.593c0.139,2.164,1.15,3.989,2.07,5.876c0.807,1.648,1.414,3.393,2.148,5.078
		c0.539,1.234,1.012,2.533,1.77,3.625c0.43,0.617,1.332,1.044,2.104,1.254c1.578,0.432,2.418,1.487,2.896,2.916
		c0.432,1.295-0.301,2.111-1.182,2.982c-1.047,1.035-1.873,2.267-1.459,3.93c0.174,0.706,0.195,1.447,0.275,2.175
		c0.219,2.032,0.881,3.791,2.625,5.077c0.738,0.544,1.225,1.424,1.852,2.125c1.652,1.843,3.9,2.648,6.145,3.423
		c0.766,0.264,1.605,0.426,2.414,0.428c3.818,0.014,7.115,1.527,10.094,3.696c0.941,0.687,1.65,1.962,2.023,3.112
		c1.021,3.169,0.211,6.242-0.967,9.23c-0.088,0.221-0.256,0.428-0.436,0.588c-1.953,1.75-3.834,3.595-5.898,5.203
		c-2.48,1.93-5.09,3.697-7.707,5.438c-0.832,0.55-1.852,1.005-2.828,1.117c-3.172,0.365-6.361,0.629-9.551,0.763
		c-0.977,0.04-1.982-0.438-2.961-0.726c-1.793-0.527-3.555-0.828-5.43-0.229c-1.834,0.585-2.719-0.154-2.758-2.104
		c-0.029-1.52,0.074-3.049-0.057-4.558c-0.045-0.538-0.598-1.032-0.92-1.548c-0.473,0.365-1.209,0.646-1.365,1.114
		c-0.395,1.188-0.617,2.456-0.732,3.709c-0.072,0.756-0.264,1.157-1.041,1.174c-4.182,0.087-8.314-0.075-12.07-2.244
		c-0.385-0.224-0.835-0.466-1.052-0.821c-0.931-1.537-2-3.039-2.618-4.701c-1.143-3.073-2.624-5.784-5.367-7.752
		c-1.525-1.095-2.877-2.447-4.23-3.763c-1.115-1.083-1.777-2.375-1.697-4.042c0.211-4.373,0.316-8.75,0.5-13.125
		c0.012-0.306,0.295-0.601,0.452-0.899c0.3,0.184,0.692,0.301,0.882,0.563c0.352,0.488,0.458,1.214,0.891,1.569
		c1.504,1.236,3.067,2.414,4.699,3.473c0.297,0.192,1.247-0.113,1.506-0.471c0.764-1.053,1.338-2.247,1.978-3.391
		c0.663-1.183,0.282-2.045-1.085-2.312c-0.803-0.156-1.631-0.199-2.451-0.24c-1.341-0.067-2.137-0.784-2.425-2.042
		c-0.22-0.953-0.429-1.929-0.458-2.898c-0.035-1.139,0.652-1.555,1.705-1.116c0.521,0.218,0.996,0.557,1.484,0.854
		c0.488,0.299,0.932,0.744,1.459,0.887c0.436,0.117,0.963-0.113,1.451-0.19c-0.076-0.483,0.021-1.169-0.26-1.417
		c-1.168-1.021-2.451-1.913-3.696-2.845c-0.223-0.167-0.471-0.302-0.987-0.63c0.64-0.396,1.08-0.827,1.596-0.952
		c1.208-0.292,1.721-0.992,1.688-2.199c-0.029-1.026,0.035-2.058-0.025-3.081c-0.063-1.066-0.824-1.492-1.684-0.877
		c-3.464,2.477-7.232,1.857-11.021,1.205c-0.492-0.085-1.008-0.035-1.512-0.047c0.094,0.527,0.033,1.158,0.31,1.562
		c0.896,1.309,1.933,2.521,2.877,3.797c0.323,0.438,0.535,0.957,0.798,1.438c-0.516,0.144-1.037,0.269-1.547,0.437
		c-0.712,0.231-1.43,0.461-2.107,0.774c-0.14,0.065-0.234,0.547-0.145,0.74c1.32,2.809,0.701,5.562-0.006,8.396
		c-0.807,3.232-2.852,5.713-4.691,8.307c-1.773,2.501-3.787,4.831-5.699,7.233c-0.103,0.129-0.201,0.301-0.338,0.353
		c-0.529,0.2-1.074,0.36-1.615,0.536c0.021-0.56-0.164-1.25,0.096-1.654c1.462-2.28,3.188-4.401,4.527-6.745
		c1.897-3.318,3.496-6.802,2.984-10.811c-0.048-0.381-0.336-0.852-0.652-1.025c-0.174-0.096-0.762,0.259-0.957,0.549
		c-2.248,3.352-5.448,5.646-8.703,7.866c-1.524,1.039-3.202,1.851-4.725,2.892c-0.826,0.562-1.644,1.283-2.168,2.119
		c-1.818,2.888-4.594,4.753-7.062,6.958c-3.638,3.247-7.274,6.503-10.774,9.897c-1.156,1.122-2.257,1.362-3.607,0.847
		c-3.976-1.518-6.221-4.537-7.209-8.572c-0.08-0.324,0.088-0.82,0.322-1.064c0.123-0.133,0.656,0.049,0.965,0.184
		c1.344,0.587,2.442,1.461,3.187,2.768c0.157,0.277,0.54,0.428,1.044,0.805c-0.301-1.684-0.564-3.075-0.797-4.471
		c-0.24-1.445,0.029-1.703,1.438-1.438c0.092-1.962-0.666-2.655-2.545-2.3c-1.121,0.212-2.232,0.472-3.351,0.699
		c-1.181,0.238-2.031-0.439-2.284-1.619c-0.307-1.434-0.705-2.849-1.128-4.252c-0.716-2.38-0.724-5.179,1.867-6.767
		c2.163-1.33,4.278-2.738,6.396-4.14c1.125-0.746,2.234-1.519,3.297-2.351c0.246-0.193,0.265-0.674,0.387-1.021
		c-0.401-0.061-0.834-0.243-1.2-0.154c-1.013,0.244-1.983,0.67-3,0.879c-0.347,0.071-0.784-0.289-1.181-0.453
		c0.175-0.381,0.303-0.791,0.529-1.139c0.913-1.402,1.887-2.768,2.76-4.193c0.168-0.275,0.136-0.924-0.07-1.117
		c-0.275-0.258-0.807-0.301-1.232-0.314c-0.308-0.01-0.648,0.305-0.929,0.249c-0.444-0.087-1.022-0.257-1.228-0.589
		c-0.191-0.309-0.096-0.938,0.092-1.314c0.621-1.235,1.254-2.48,2.043-3.611c1.023-1.471,2.099-2.936,3.361-4.191
		c0.562-0.559,1.653-0.88,2.475-0.828c2.281,0.145,4.557,0.479,6.816,0.854c1.68,0.28,3.325,0.658,4.853-0.468
		c0.065-0.049,0.171-0.073,0.2-0.137c0.316-0.646,1.035-1.488,0.842-1.906c-0.393-0.853-1.264-0.316-1.926-0.004
		c-2.797,1.314-6.199,0.084-7.504-2.783c0.455-0.242,0.92-0.479,1.373-0.735c0.824-0.462,0.836-1.147,0.256-1.729
		c-0.803-0.808-1.778-1.313-3.002-0.971c-0.869,0.242-1.754,0.426-2.623,0.67c-0.836,0.233-1.156-0.113-1.131-0.916
		c0.002-0.041,0-0.084-0.002-0.125c-0.291-4.338,0.987-5.061,5.015-4.725c0.899,0.075,1.301-0.186,1.743-0.917
		c1.072-1.782,2.105-3.629,3.445-5.204c2.182-2.564,6.619-3.558,9.6-2.072c2.992,1.493,5.289,0.277,7.584-1.375
		c0.246-0.179,0.25-0.693,0.367-1.053c-0.399-0.003-0.94-0.178-1.176,0.016c-2.4,1.979-4.91,1.968-7.586,0.636
		c-0.939-0.468-1.963-0.767-2.949-1.142c0.021-0.148,0.041-0.298,0.062-0.447c0.854-0.535,1.729-1.041,2.549-1.623
		c0.247-0.176,0.344-0.562,0.51-0.852c-0.328-0.066-0.697-0.266-0.979-0.179c-1.324,0.41-2.621,0.91-3.938,1.353
		c-0.305,0.103-0.643,0.152-0.963,0.152c-1.009-0.002-1.244-0.439-0.771-1.312c0.296-0.547,0.539-1.123,0.807-1.687
		c-0.658-0.052-1.318-0.174-1.971-0.142c-0.998,0.053-1.99,0.211-3.146,0.344c0.492-2.172,1.23-3.939,2.641-5.389
		c0.429-0.44,0.861-0.894,1.191-1.405c0.168-0.263,0.264-0.771,0.12-0.981c-0.137-0.197-0.692-0.298-0.954-0.186
		c-1.387,0.59-2.599,1.343-2.923,3.033c-0.459,2.4-1.571,4.695-1.087,7.244c0.038,0.198-0.09,0.588-0.22,0.625
		c-0.229,0.068-0.563,0.008-0.771-0.129c-1.869-1.225-2.75-3.043-2.793-5.207c-0.089-4.562,1.107-8.789,3.791-12.5
		c1.508-2.086,3.137-4.1,4.86-6.012c1.721-1.908,3.989-3.105,6.472-3.621c3.284-0.679,6.62-1.123,9.947-1.566
		c2.007-0.269,3.73,0.779,5.516,1.49c2.117,0.844,4.096,1.926,6.512,2.071c5.228,0.317,8.732-1.368,11.068-5.998
		c1.088-2.157,2.719-3.649,4.732-4.834c0.142-0.083,0.306-0.147,0.414-0.264c0.23-0.251,0.432-0.53,0.646-0.797
		c-0.316-0.118-0.68-0.402-0.939-0.328c-1.401,0.399-2.897,0.679-4.133,1.396c-2.154,1.25-4.071,2.908-6.217,4.18
		c-3.186,1.889-6.502,2.016-9.832,0.223c-2.027-1.092-4.095-1.922-6.486-2.096c-3.076-0.223-5.541,1.25-8.196,2.285
		C436.242,256.643,433.775,257.496,431.324,258.392z M452.486,306.205c-0.658-0.09-1.01-0.107-1.346-0.189
		c-2.083-0.509-4.137-0.824-6.288-0.18c-1.467,0.438-2.837-0.012-3.879-1.231c-0.722-0.843-1.433-1.696-2.203-2.493
		c-0.69-0.715-2.019-0.414-2.073,0.521c-0.037,0.61,0.407,1.283,0.732,1.875c0.568,1.035,1.259,2.003,1.811,3.046
		c1.035,1.956,1.986,3.956,3.017,5.916c0.495,0.945,1.149,1.021,2.006,0.381c0.276-0.206,0.632-0.456,0.942-0.445
		c2.274,0.07,4.584-0.641,6.828,0.328c0.252,0.108,0.707-0.138,1.021-0.309c0.581-0.316,1.09-0.789,1.696-1.029
		c0.793-0.316,1.683-0.395,2.477-0.712c1.832-0.729,2.336-2.196,1.49-4.001c-1.234-2.633-2.401-5.3-3.688-7.906
		c-0.558-1.134-1.273-2.207-2.045-3.209c-0.662-0.865-1.925-0.781-3.13-0.016c-1.024,0.65-0.823,1.469-0.423,2.361
		c0.704,1.565,1.4,3.136,2.077,4.715C451.822,304.365,452.08,305.131,452.486,306.205z M429.441,328.498c0-0.69,0-1.26,0-1.828
		c-0.693,0.122-1.447,0.113-2.064,0.398c-0.846,0.39-1.562,1.055-2.385,1.51c-2.871,1.586-5.764,3.133-8.646,4.695
		c-0.673,0.365-1.2,0.852-0.752,1.666c0.468,0.852,1.182,0.734,1.891,0.277c0.359-0.23,0.709-0.477,1.002-0.674
		c0.188,0.482,0.295,1.105,0.465,1.125c0.385,0.042,0.902-0.108,1.188-0.372c1.575-1.474,3.295-2.677,5.344-3.419
		c1.58-0.573,3.127-1.244,4.653-1.946c0.368-0.169,0.599-0.639,0.892-0.971c-0.439-0.154-0.877-0.315-1.32-0.457
		C429.602,328.469,429.478,328.498,429.441,328.498z M480.203,343.984c0.156-0.096,0.576-0.209,0.733-0.478
		c0.716-1.216,1.353-2.478,2.026-3.72c0.371-0.687,0.773-1.357,1.137-2.049c0.119-0.227,0.297-0.596,0.205-0.721
		c-0.165-0.222-0.583-0.49-0.771-0.418c-0.515,0.195-1.061,0.473-1.416,0.874c-1.18,1.332-2.362,2.603-4.188,3.065
		c-0.261,0.066-0.556,0.599-0.565,0.923C477.342,342.193,479.264,343.947,480.203,343.984z M434.133,271.107
		c0.732-0.203,1.367-0.27,1.895-0.545c1.559-0.816,3.08-1.71,4.606-2.589c0.315-0.181,0.728-0.374,0.848-0.664
		c0.15-0.36,0.044-0.829,0.048-1.25c-0.332,0.021-0.695-0.042-0.99,0.072c-1.404,0.543-2.775,1.176-4.189,1.694
		C434.933,268.346,434.334,269.387,434.133,271.107z"/>
	<path d="M458.068,219.938c1.241,0,2.487,0.071,3.723-0.021c1.185-0.088,2.359-0.346,3.537-0.529
		c-0.008-0.152-0.015-0.304-0.021-0.456c-0.376-0.124-0.762-0.23-1.128-0.377c-0.913-0.363-1.979-0.556-2.69-1.162
		c-1.268-1.081-2.642-1.416-4.207-1.273c-2.01,0.183-4.072,0.352-5.731,1.616c-1.366,1.04-2.693,2.198-3.778,3.517
		c-0.916,1.112-1.548,2.491-2.146,3.825c-0.621,1.379-1.051,2.847-1.562,4.275c-0.577,1.62-1.569,2.912-2.812,4.12
		c-2.543,2.474-5.439,4.69-6.705,8.215c-0.65,1.812-1.127,3.708-1.967,5.429c-0.832,1.705-1.83,3.408-3.092,4.809
		c-2.748,3.051-5.674,5.943-7.791,9.502c-0.881,1.482-1.716,2.994-2.516,4.521c-1.082,2.067-1.975,4.248-3.865,5.779
		c-0.33,0.268-0.527,0.698-0.822,1.102c1.02,0.771,1.492-0.059,2.045-0.494c0.588-0.465,1.143-0.975,1.83-1.566
		c0,1.6,0.062,2.938-0.013,4.27c-0.159,2.82-0.536,5.637-0.545,8.455c-0.008,2.316-0.719,4.248-2.131,6.002
		c-0.938,1.168-0.995,1.576-0.356,2.953c0.35-0.767,0.648-1.416,0.946-2.067c0.093,0.021,0.185,0.039,0.276,0.06
		c0,1.896,0.125,3.805-0.041,5.688c-0.124,1.413-1.434,1.806-2.377,0.743c-0.566-0.641-0.862-1.547-1.189-2.369
		c-1.504-3.772-3.078-7.521-4.436-11.346c-1.93-5.436-2.205-10.978-0.448-16.525c0.347-1.1,0.162-1.675-0.776-2.438
		c-2.182-1.771-3.041-4.232-2.761-7.024c0.032-0.315,0.634-0.67,1.04-0.821c0.305-0.111,0.719,0.075,1.085,0.128
		c0.791,0.117,1.104-0.149,1.282-1.015c0.46-2.233,1.057-4.443,1.71-6.629c0.301-1.006,0.407-1.785-0.302-2.73
		c-0.668-0.891-0.979-2.05-1.559-3.34c-0.109,0.666-0.174,1.117-0.263,1.562c-0.149,0.763-0.239,1.549-0.493,2.275
		c-0.418,1.202-1.484,1.885-2.535,1.705c-1.273-0.218-1.652-1.289-1.669-2.283c-0.048-2.99-0.009-5.988,0.166-8.972
		c0.163-2.776,0.476-5.549,0.86-8.302c0.191-1.371,0.667-2.707,1.081-4.037c0.103-0.333,0.468-0.583,0.713-0.872
		c0.245,0.299,0.61,0.563,0.709,0.905c0.214,0.738,0.312,1.516,0.418,2.281c0.203,1.474,0.905,2.519,2.206,3.342
		c1.686,1.066,3.242,2.341,4.803,3.589c0.971,0.774,1.282,0.67,1.928-0.367c0.64-1.028,1.486-1.94,2.324-2.826
		c0.438-0.462,0.915-0.558,1.342,0.231c0.465,0.855,1.387,1.455,0.967,2.673c-0.562,1.625-1.746,2.674-3.123,3.519
		c-1.362,0.836-2.807,1.538-4.211,2.307c-0.268,0.146-0.518,0.324-1.027,0.646c0.555,0.068,0.814,0.136,1.072,0.125
		c1.306-0.045,1.436,0.126,1.013,1.4c-0.349,1.053-0.704,2.104-1.049,3.157c-0.103,0.312-0.216,0.627-0.265,0.949
		c-0.258,1.77,0.34,2.344,2.021,1.819c2.31-0.722,4.583-1.554,6.885-2.3c1.792-0.582,3.548-0.803,5.356,0.173
		c0.424,0.229,1.586-0.136,1.855-0.571c0.428-0.688,0.064-1.46-0.857-1.824c-1.196-0.474-2.344-0.586-3.594-0.156
		c-2.869,0.99-5.767,1.902-8.656,2.834c-0.41,0.132-0.844,0.195-1.568,0.357c0.885-1.717,1.489-3.26,2.402-4.588
		c2.275-3.305,4.443-6.736,7.125-9.689c2.263-2.493,5.185-4.387,7.812-6.549c0.666-0.547,1.346-1.082,1.963-1.68
		c0.174-0.168,0.146-0.543,0.211-0.822c-0.264-0.011-0.631-0.143-0.773-0.018c-3.02,2.645-7.068,3.893-9.651,7.154
		c-0.409,0.519-1.319,0.789-2.034,0.879c-0.85,0.107-1.205-0.647-0.953-1.331c0.75-2.03,1.541-4.058,2.518-5.982
		c0.238-0.472,1.227-0.685,1.902-0.786c0.89-0.132,1.324-0.277,0.828-1.291c-0.695-1.417-0.301-2.839,0.625-3.924
		c1.896-2.22,3.984-4.326,6.769-5.388c3.207-1.223,6.448-2.441,9.78-3.215c2.559-0.595,5.277-0.521,7.928-0.705
		c3.357-0.232,6.718-0.406,10.072-0.66c0.377-0.028,0.728-0.41,1.091-0.626c-0.291-0.35-0.523-0.778-0.88-1.036
		c-1.938-1.402-4.193-1.217-6.408-1.203c-0.321,0.002-0.643,0-0.963,0c-0.096-0.104-0.191-0.209-0.286-0.314
		c0.937-0.624,1.87-1.247,2.804-1.87c-0.174-0.127-0.349-0.254-0.523-0.382c-0.342-0.992-0.696-1.981-1.019-2.981
		c-0.207-0.642-0.534-0.826-1.058-0.334c-1.197,1.122-2.413,2.227-3.549,3.409c-0.365,0.378-0.502,0.976-0.743,1.474
		c0.444,0.205,0.911,0.372,1.327,0.625c0.596,0.363,1.154,0.789,1.791,1.233c-0.771,0.909-1.327,1.257-2.437,1.149
		c-3.763-0.367-7.47,0.09-10.928,1.74c-2.925,1.395-5.919,2.703-8.649,4.419c-2.191,1.376-4.05,3.288-6.009,5.014
		c-0.296,0.262-0.394,0.798-0.491,1.229c-0.32,1.425-1.881,2.796-3.367,2.739c-0.383-0.015-0.888-0.474-1.096-0.859
		c-0.604-1.124-1.064-1.308-1.906-0.336c-0.641,0.738-0.979,1.729-1.537,2.552c-0.229,0.336-0.648,0.668-1.035,0.748
		c-1.364,0.283-1.514,0.486-1.088,1.821c0.26,0.819,0.568,1.64,0.697,2.481c0.143,0.925-0.484,1.338-1.283,0.863
		c-0.553-0.328-1.137-0.752-1.467-1.283c-0.974-1.568-2.015-3.14-2.654-4.85c-0.366-0.982-0.17-2.273,0.07-3.358
		c0.256-1.144,0.829-2.228,1.334-3.304c0.686-1.466,1.646-1.56,2.75-0.341c0.446,0.494,0.932,0.952,1.401,1.426
		c0.133-0.104,0.267-0.21,0.399-0.316c-0.176-0.361-0.299-0.766-0.541-1.075c-0.631-0.809-1.26-1.634-1.994-2.345
		c-1-0.971-1.012-2.096-0.725-3.301c0.715-2.992,1.441-5.98,2.19-8.964c0.083-0.327,0.284-0.777,0.536-0.864
		c0.234-0.081,0.689,0.172,0.908,0.408c0.529,0.57,0.965,1.225,1.459,1.828c1.056,1.29,2.074,2.614,3.199,3.841
		c1.034,1.131,0.707,2.647-0.773,3.084c-0.35,0.104-0.727,0.13-1.094,0.158c-1.681,0.123-2.139,0.682-1.779,2.365
		c0.047,0.221,0.76,0.555,0.895,0.459c0.982-0.706,1.891-1.515,2.84-2.273c0.297-0.238,0.688-0.627,0.953-0.569
		c0.295,0.063,0.625,0.526,0.717,0.873c0.235,0.908,0.371,1.844,0.504,2.775c0.179,1.262-0.346,2.236-1.326,2.998
		c-0.482,0.375-0.96,0.754-1.45,1.14c0.29,1.243,1.369,1.109,2.177,1.2c0.254,0.029,0.717-0.704,0.883-1.162
		c0.754-2.076,1.362-4.208,2.183-6.256c0.353-0.882,0.983-1.718,1.672-2.389c4.188-4.093,8.788-7.65,14.132-10.124
		c2.336-1.081,4.844-1.799,7.153-2.926c3.388-1.653,6.655-3.553,10.002-5.291c1.047-0.542,2.163-0.996,3.296-1.312
		c0.943-0.263,1.314,0.266,0.938,1.181c-0.723,1.758-1.859,3.181-3.523,4.133c-0.895,0.511-1.48,1.075-1.102,2.249
		c0.223,0.689,0.596,0.966,1.15,0.613c3.628-2.314,7.868-2.007,11.846-2.809c1.721-0.346,3.459-0.669,5.203-0.793
		c1.458-0.104,2.943,0.045,4.409,0.176c3.022,0.27,6.042,0.587,9.06,0.912c3.137,0.337,6.271,0.707,9.408,1.057
		c0.586,0.065,1.174,0.101,1.76,0.15c0.033-0.118,0.064-0.234,0.098-0.353c-1.164-0.492-2.375-0.901-3.486-1.494
		c-1.576-0.841-3.24-1.632-4.57-2.786c-1.398-1.213-2.742-1.285-4.41-0.968c-2.312,0.439-4.664,0.74-7.012,0.936
		c-1.795,0.15-3.615,0.111-5.418,0.023c-0.875-0.042-1.806-0.255-2.578-0.648c-0.498-0.253-0.908-0.936-1.055-1.504
		c-0.068-0.264,0.525-0.797,0.918-1.065c2.355-1.62,4.701-3.263,7.127-4.773c2.811-1.75,5.652-3.474,8.586-4.999
		c1.227-0.638,2.723-0.781,4.115-1.05c0.303-0.058,0.84,0.231,0.982,0.509c0.105,0.204-0.182,0.72-0.422,0.974
		c-1.779,1.877-3.623,3.695-5.363,5.605c-0.33,0.362-0.582,1.298-0.371,1.545c0.486,0.574,1.217,0.423,1.854-0.08
		c4.473-3.529,8.955-7.044,13.445-10.55c0.379-0.296,0.824-0.519,1.262-0.728c2.26-1.087,4.449-2.215,6.131-4.209
		c2.43-2.884,5.01-5.642,7.543-8.439c0.162-0.18,0.459-0.238,0.693-0.353c0.086,0.29,0.303,0.616,0.232,0.863
		c-0.449,1.62-0.814,3.286-1.486,4.815c-0.951,2.161-2.176,4.201-3.209,6.329c-0.348,0.713-0.461,1.539-0.75,2.552
		c-0.404,0-0.998,0.051-1.582-0.011c-1.285-0.136-2.283,0.384-3.264,1.157c-1.113,0.881-2.328,1.637-3.49,2.46
		c-0.395,0.278-0.969,0.527-1.094,0.91c-0.225,0.687-0.174,1.465-0.236,2.205c0.643-0.059,1.32-0.003,1.918-0.197
		c2.559-0.827,4.893-2.138,7.582-2.785c4.994-1.204,10.002-2.512,14.664-4.846c0.914-0.459,2.246-0.258,3.354-0.113
		c0.879,0.114,1.102,0.764,0.449,1.528c-2.277,2.671-5.109,4.488-8.494,5.384c-0.809,0.214-1.244,0.544-1.525,1.351
		c-1.262,3.604-1.506,3.705-5.045,2.487c-0.561-0.194-1.092-0.475-1.875-0.82c0.68-0.694,1.213-1.178,1.66-1.731
		c0.193-0.239,0.207-0.622,0.305-0.939c-0.371,0.001-0.771-0.09-1.1,0.027c-0.455,0.162-0.885,0.439-1.271,0.737
		c-3.459,2.671-7.482,1.394-11.293,1.688c-1.812,0.139-3.604,0.654-5.379,1.095c-0.262,0.065-0.584,0.69-0.539,1.009
		c0.102,0.726,0.352,1.527,1.344,1.447c1.182-0.096,2.371-0.213,3.537-0.426c4.691-0.851,9.223,0.234,13.771,1.097
		c0.324,0.061,0.643,0.191,0.963,0.193c2.516,0.006,3.617,1.795,4.611,3.674c0.463,0.875,0.053,1.636-0.674,2.143
		c-0.525,0.369-1.16,0.612-1.775,0.819c-2.254,0.756-4.484,1.61-6.789,2.15c-1.219,0.286-2.592,0.126-3.859-0.061
		c-1.656-0.243-3.266-0.767-4.914-1.062c-1.068-0.192-1.619,0.434-1.645,1.486c-0.023,1.026-0.025,2.055,0.006,3.081
		c0.023,0.74-0.236,1.086-1.018,1.234c-1.082,0.205-2.141,0.559-3.184,0.921c-1.012,0.353-1.869,0.402-2.686-0.486
		c-0.846-0.919-1.998-0.753-2.99-0.353c-2.889,1.166-5.736,2.438-8.6,3.67c-0.697,0.3-1.39,0.609-2.337,1.025
		c2.086,0,3.888,0.179,5.642-0.036c4.193-0.516,7.891,0.372,11.145,3.393c-1.691,0-3.283-0.205-4.795,0.058
		c-1.521,0.264-2.959,0.994-4.342,1.718c2.184,0.205,4.367,0.391,6.547,0.616c3.23,0.333,6.02,1.429,8.395,3.856
		c4.072,4.159,9.707,4.95,15.479,2.352c1.318-0.594,2.771-0.996,4.201-1.218c2.699-0.419,6.865,2.005,8.137,4.43
		c1.201-0.658,2.188-0.189,3.201,0.586c1.322,1.008,2.75,1.875,4.131,2.806c-0.041,0.116-0.082,0.231-0.123,0.348
		c-0.277,0-0.582,0.079-0.824-0.013c-0.979-0.374-1.883-0.426-2.486,0.586c-0.48,0.804-0.018,2.722,0.73,3.273
		c0.195,0.145,0.506,0.193,0.625,0.377c0.35,0.539,1.002,1.27,0.85,1.653c-0.242,0.609-0.984,1.292-1.615,1.407
		c-0.83,0.152-1.76-0.195-2.641-0.365c-1.504-0.292-2.947-0.5-4.42,0.333c-0.6,0.339-1.525,0.278-2.262,0.153
		c-1.777-0.305-3.518-0.895-5.301-1.1c-1.301-0.15-2.666,0.056-3.982,0.237c-1.213,0.168-2.396,0.56-3.605,0.763
		c-0.396,0.065-0.84-0.153-1.453-0.282c4.521-3.999,10.768-6.106,16.662-3.562c1.24,0.536,2.646,0.696,4.26,1.099
		c-0.92-1.405-1.541-2.57-2.363-3.571c-1.492-1.815-3.641-2.489-5.844-2.429c-3.867,0.104-7.652,0.89-10.582,3.664
		c-2.578,2.441-5.729,3.678-8.986,4.66c-5.096,1.537-10.355,2.047-15.668,2.273c-3.029,0.129-5.707-0.822-8.46-1.777
		c-1.729-0.601-3.54-0.994-5.34-1.352c-2.124-0.421-3.541,0.896-4.924,2.225c-1.646,1.583-3.181,3.326-5.003,4.672
		c-2.03,1.498-4.553,1.744-7.04,1.765c-0.397,0.003-0.904-0.062-1.177-0.304c-1.361-1.209-2.742-2.418-3.957-3.768
		c-0.707-0.784-0.211-1.546,0.736-1.698c0.911-0.145,1.911-0.212,2.79,0.011c2.562,0.646,4.315-0.849,6.165-2.123
		c0.162-0.11,0.25-0.571,0.152-0.75c-0.104-0.188-0.473-0.332-0.719-0.325c-1.024,0.028-2.057,0.231-3.069,0.161
		c-1.038-0.07-2.11-0.248-3.078-0.616c-3.116-1.188-6.049-0.478-8.97,0.655c-0.281,0.108-0.547,0.258-0.918,0.436
		c1.548-4.932,4.875-8.252,10.257-7.559c2.642,0.34,5.376,1.031,7.729,2.229c2.438,1.24,4.682,1.2,6.981,0.354
		c2.181-0.803,4.25-1.926,6.317-3.004c2.215-1.154,4.346-2.479,6.564-3.629c4.098-2.125,7.941-1.131,11.645,1.11
		c2.199,1.333,4.336,2.792,6.605,3.989c2.406,1.269,4.998,1.083,7.562,0.396c2.783-0.744,5.068-2.396,7.195-3.828
		c-2.652,0.221-5.484,0.463-8.314,0.692c-3.148,0.255-5.635-1.161-7.881-3.159c-0.613-0.546-1.229-1.097-1.797-1.688
		c-2.094-2.177-4.635-2.844-7.607-2.643c-4.564,0.309-8.587,1.999-12.448,4.289c-2.998,1.777-5.964,3.677-9.528,4.138
		c-0.791,0.103-1.635,0.056-2.416-0.104C463.925,223.648,460.849,222.265,458.068,219.938z"/>
	<path d="M508.715,277.541c0.406-0.256,0.896-0.561,1.295-0.809c-1.508-0.74-2.943-1.443-4.662-2.285
		c0.791,1.065,1.402,1.891,2.016,2.717c-0.049,0.098-0.096,0.195-0.143,0.291c-0.943-0.375-1.904-0.707-2.82-1.137
		c-1.998-0.937-3.957-1.951-5.961-2.869c-0.5-0.229-1.109-0.271-1.674-0.299c-2.617-0.132-5.264-0.029-7.846-0.401
		c-1.994-0.286-3.91-1.136-5.85-1.77c-0.322-0.104-0.588-0.383-1.164-0.771c3.273-1.53,6.227-3.154,9.354-4.304
		c3.291-1.209,6.711-2.151,10.145-2.873c3.969-0.832,8-0.635,11.98,0.218c0.922,0.196,1.834,0.438,2.754,0.639
		c0.801,0.174,1.141-0.134,1.092-0.979c-0.121-2.045-1.574-3.772-3.482-4.596c-3.352-1.445-6.867-1.852-10.443-2.055
		c-0.244-0.014-0.525,0.001-0.721-0.114c-0.291-0.172-0.521-0.448-0.775-0.68c0.271-0.187,0.525-0.494,0.822-0.544
		c6.408-1.069,12.602-0.083,18.26,2.917c4.809,2.549,8.109,6.644,9.148,12.18c0.316,1.673,0.395,3.403,0.424,5.11
		c0.055,3.214-0.172,6.404-1.365,9.447c-0.107,0.267-0.16,0.559-0.299,0.806c-0.361,0.657-0.807,1.466-1.645,1.103
		c-0.363-0.158-0.541-1.068-0.545-1.639c-0.008-0.675,0.238-1.359,0.422-2.027c0.162-0.595,0.475-1.158,0.551-1.757
		c0.055-0.411-0.182-0.86-0.283-1.294c-0.273,0.296-0.654,0.546-0.801,0.895c-0.666,1.604-1.391,3.154-3.391,3.312
		c-0.59,0.047-1.377-0.1-1.756-0.479c-0.299-0.297-0.271-1.142-0.102-1.643c0.299-0.865,0.111-1.341-0.732-1.604
		c-0.076-0.024-0.156-0.054-0.23-0.087c-1.971-0.83-1.971-0.83-2.338,1.271c-0.158,0.911-0.914,1.184-1.746,0.671
		C513.74,280.588,511.266,279.094,508.715,277.541z M500.395,267.83c0.898-0.209,1.787-0.53,2.699-0.61
		c3.992-0.349,7.768,0.198,10.967,2.912c0.16,0.134,0.549,0.112,0.764,0.015c0.111-0.05,0.188-0.525,0.084-0.642
		c-0.783-0.905-1.51-1.914-2.465-2.603c-0.764-0.552-1.822-0.697-2.75-1.024C506.221,264.646,503.141,265.476,500.395,267.83z"/>
	<path d="M536.02,220.203c-0.994-1.094-1.887-1.935-2.611-2.902c-2.043-2.721-4.02-5.49-6.01-8.25
		c-0.16-0.224-0.316-0.533-0.303-0.793c0.125-2.338-1.232-4.213-1.902-6.303c-0.627-1.95-1.199-3.924-1.654-5.918
		c-0.352-1.545,0.209-2.005,1.764-1.865c7.311,0.66,13.258,4.138,18.279,9.208c1.527,1.544,2.553,3.735,3.371,5.803
		c1.211,3.049,2.027,6.259,1.771,9.609c-0.102,1.3,0.307,2.4,0.955,3.485c0.305,0.512,0.543,1.123,0.592,1.709
		c0.035,0.39-0.242,1.072-0.521,1.154c-0.344,0.102-0.967-0.17-1.229-0.482c-0.738-0.873-1.43-1.808-2.004-2.797
		c-1.494-2.568-3.859-4.242-6.158-5.943c-0.705-0.523-1.865-0.65-2.797-0.595c-1.211,0.072-1.4,1.228-1.521,2.196
		C535.939,218.307,536.02,219.117,536.02,220.203z"/>
	<path d="M504.932,397.577c-0.301,0.664-0.498,1.795-0.928,1.895c-0.861,0.193-1.896-0.047-2.771-0.354
		c-0.707-0.25-1.268-0.885-1.924-1.305c-1.166-0.744-1.965-1.724-2.672-2.951c-2.092-3.625-4.328-7.117-7.998-9.51
		c-2.832-1.848-5.568-3.828-8.95-4.441c-2.294-0.416-4.646-0.514-6.971-0.758c-0.326-0.035-0.651-0.086-0.978-0.121
		c-0.787-0.082-1.211-0.424-1.016-1.295c0.202-0.897-0.277-1.185-1.105-1.369c-4.055-0.912-7.899-2.26-11.57-4.35
		c-3.145-1.789-6.665-2.96-10.098-4.186c-2.99-1.068-5.195-3.184-7.582-5.083c-0.164-0.134-0.271-0.652-0.188-0.716
		c0.218-0.172,0.587-0.318,0.836-0.252c6.759,1.83,13.694,3.041,20.194,5.783c0.375,0.158,1.177,0.025,1.359-0.25
		c0.312-0.471,0.367-1.162,0.393-1.763c0.039-0.999-0.2-2.034-0.018-2.995c0.227-1.176,0.82-1.382,1.736-0.633
		c0.874,0.715,1.701,1.564,2.309,2.512c1.418,2.205,2.691,4.504,4.022,6.764c0.083,0.144,0.2,0.277,0.233,0.434
		c0.58,2.59,2.496,3.669,4.803,4.423c3.025,0.991,6.193,1.761,8.973,3.24c3.518,1.875,7.002,3.983,9.529,7.262
		c0.648,0.841,1.449,1.562,2.172,2.353c1,1.093,2.205,1.765,3.672,2.098C502.875,392.571,504.676,394.938,504.932,397.577z"/>
	<path d="M530.014,181.468c0.197,1.042,0.354,2.097,0.613,3.124c0.152,0.604,0.475,1.166,0.721,1.747
		c0.221-0.612,0.535-1.208,0.645-1.841c0.533-3.023,0.967-6.066,1.551-9.08c0.098-0.496,0.77-0.88,1.176-1.316
		c0.371,0.474,1.002,0.909,1.076,1.426c0.699,4.708,2.09,9.173,4.162,13.465c0.85,1.757,1.289,3.712,1.918,5.575
		c0.125,0.367,0.264,0.729,0.395,1.094c0.117-0.025,0.232-0.05,0.35-0.074c-0.201-1.292-0.412-2.582-0.6-3.875
		c-0.123-0.851-0.289-1.709-0.27-2.561c0.01-0.436,0.385-0.864,0.592-1.296c0.268,0.385,0.66,0.732,0.779,1.158
		c0.693,2.475,1.32,4.966,1.977,7.47c1.316-0.458,3.123,0.891,3.156,2.192c0.094,3.363,0.119,6.729,0.121,10.093
		c0,0.32-0.348,0.64-0.531,0.961c-0.193-0.308-0.521-0.599-0.564-0.926c-0.324-2.53-1.785-4.517-2.996-6.646
		c-1.723-3.023-4.77-4.424-7.457-6.214c-2.721-1.812-5.693-3.233-8.512-4.907c-1.445-0.86-1.383-1.119-0.859-2.699
		c0.604-1.827,1.037-3.709,1.566-5.561c0.129-0.448,0.342-0.87,0.516-1.303C529.695,181.472,529.854,181.47,530.014,181.468z"/>
	<path d="M500.842,209.941c3.209,1.682,6.543,2.581,10.059,1.342c1.094-0.386,2.027-1.224,2.967-2.051
		c-5.102-0.401-10.049-0.877-14.305-4.232c1.635-0.209,3.271-0.626,4.9-0.585c3.184,0.08,6.455,0.021,9.512,0.764
		c2.678,0.652,5.252,1.66,8.061,1.875c0.822,0.062,1.799,0.704,2.342,1.375c1.693,2.094,3.221,4.326,4.799,6.515
		c0.178,0.25,0.266,0.566,0.229,1.072c-0.406-0.188-0.842-0.33-1.209-0.575c-0.547-0.363-1.039-0.806-1.561-1.204
		c-1.58-1.203-3.344-1.661-5.207-0.896c-1.426,0.584-2.869,1.249-4.102,2.156c-2.879,2.121-5.92,3.236-9.43,1.983
		c-2.152-0.768-3.674-2.412-5.021-4.197c-0.76-1.006-1.471-2.049-2.203-3.074C500.729,210.12,500.785,210.03,500.842,209.941z"/>
	<path d="M534.699,309.605c-0.582,0-1.229-0.166-1.738,0.029c-1.949,0.748-3.908,0.216-5.85,0.095
		c-0.715-0.044-1.506-0.476-2.078-0.95c-1.125-0.933-2.145-1.998-3.145-3.064c-0.191-0.203-0.104-0.669-0.143-1.014
		c0.336-0.016,0.676-0.07,1.006-0.035c0.607,0.064,1.211,0.277,1.811,0.264c2.791-0.061,5.592-0.038,8.361-0.318
		c2.047-0.209,3.451,0.678,4.84,1.909c0.334,0.298,0.799,0.448,1.203,0.666c0.129-0.454,0.328-0.901,0.367-1.362
		c0.113-1.314,0.215-1.422,1.508-0.967c1.234,0.437,2.479,0.875,3.652,1.445c1.051,0.509,1.207,1.555,0.314,2.296
		c-1.955,1.625-3.916,3.267-6.02,4.681c-1.307,0.879-2.871,0.896-4.311-0.022c-0.516-0.331-1.098-0.562-1.607-0.899
		c-0.797-0.529-0.756-1.134,0.104-1.563c0.566-0.287,1.17-0.507,1.76-0.757C534.723,309.893,534.711,309.75,534.699,309.605z"/>
	<path d="M549.131,294.16c-0.152,0.166-0.301,0.336-0.459,0.496c-0.545,0.559-1.139,0.638-1.457-0.14
		c-1.131-2.754-2.207-5.528-3.25-8.317c-0.113-0.303,0.137-0.742,0.219-1.119c0.334,0.084,0.674,0.143,0.998,0.255
		c1.631,0.569,3.258,1.153,4.973,1.766c-0.361-1.073-1.029-1.858-2.068-2.192c-1.127-0.358-2.291-0.701-3.457-0.791
		c-1.213-0.095-1.365-0.659-1.34-1.687c0.07-2.771,1.443-4.979,2.861-7.202c0.311-0.484,0.42-1.164,0.432-1.756
		c0.016-0.859,0.49-1.137,1.164-1.018c0.717,0.129,1.422,0.404,2.08,0.726c1.143,0.56,2.25,1.188,3.352,1.822
		c0.348,0.198,0.691,0.464,0.922,0.784c0.154,0.219,0.189,0.608,0.111,0.873c-0.033,0.112-0.5,0.156-0.762,0.132
		c-1.219-0.113-2.432-0.337-3.65-0.378c-1.947-0.067-2.314,1.543-2.832,2.908c-0.453,1.203-0.068,2.24,0.926,3.039
		c1.988,1.599,3.721,3.435,4.104,6.062c0.182,1.238,0.016,2.558-0.182,3.812c-0.23,1.494-0.621,2.969-1.027,4.43
		c-0.154,0.565-0.467,1.132-0.85,1.574c-0.205,0.237-0.713,0.211-1.082,0.305c-0.088-0.367-0.309-0.762-0.236-1.096
		c0.225-1.059,0.557-2.094,0.846-3.138C549.352,294.261,549.24,294.211,549.131,294.16z"/>
	<path d="M537.426,331.398c-0.891-0.703-1.639-1.218-2.299-1.83c-1.824-1.697-4.01-2.611-6.338-3.44
		c-4.766-1.697-9.498-1.382-14.293-0.394c-1.504,0.312-1.943-0.146-1.35-1.518c0.629-1.455,1.305-2.938,2.24-4.201
		c1.201-1.622,2.32-1.574,3.596-0.02c0.711,0.865,1.299,1.722,2.594,1.13c0.064-0.029,0.182-0.031,0.238,0.007
		c2.156,1.335,4.312-0.135,6.457,0.027c1.322,0.1,2.633,0.433,3.93,0.74c0.24,0.057,0.447,0.467,0.58,0.756
		c0.393,0.857,0.822,1.379,1.969,1.125c0.398-0.088,1.082,0.678,1.494,1.17c1.176,1.401,1.643,3.084,1.635,4.889
		C537.877,330.258,537.645,330.675,537.426,331.398z"/>
	<path d="M523.301,329.043c2.064-0.526,3.766,1.188,5.801,1.656c3.055,0.705,4.346,3.367,6.314,5.33
		c1.922,1.912,0.764,3.81,0.457,5.7c-0.146,0.896-1.129,0.867-1.666,0.286c-1.234-1.336-2.436-2.724-3.479-4.211
		c-0.672-0.959-1.146-1.73-2.504-1.072c-0.426,0.204-1.119-0.053-1.662-0.205c-2.051-0.58-4.104-1.156-6.117-1.842
		c-0.506-0.171-0.979-0.673-1.281-1.143c-0.27-0.424-0.295-1.006-0.406-1.525c-0.451-2.074-0.18-2.486,1.961-2.801
		C521.484,329.102,522.27,329.107,523.301,329.043z"/>
	<path d="M559.17,250.232c-0.322-0.13-0.449-0.147-0.461-0.189c-0.457-2.208-2.039-3.777-3.139-5.624
		c-1.391-2.339-0.881-5.253,1.062-7.188c0.23-0.234,0.334-0.599,0.494-0.902c-0.281-0.092-0.592-0.312-0.846-0.258
		c-5.186,1.107-8.676-1.281-11.322-5.445c-0.461-0.727-0.9-1.478-1.461-2.125c-0.395-0.459-0.971-0.764-1.445-1.121
		c2.084-1.651,3.697-1.5,6.299,0.889c0.689,0.635,1.273,1.387,1.896,2.092c1.264,1.426,2.91,2.158,4.736,2.385
		c1.725,0.217,2.584,1.125,3.002,2.744c0.963,3.722,1.154,7.514,1.186,11.326C559.178,247.925,559.17,249.033,559.17,250.232z"/>
	<path d="M509.561,286.303c-1.695-0.605-3.332-1.105-4.904-1.768c-3.027-1.272-5.826-2.892-7.545-5.858
		c-0.252-0.438-0.486-0.976-0.479-1.462c0.014-0.874,0.447-1.188,1.4-0.876c0.939,0.309,1.99,0.278,2.943,0.563
		c1.52,0.455,3.031,0.969,4.482,1.602c2.561,1.113,5.094,2.292,7.586,3.541c0.498,0.249,1.016,0.908,1.076,1.432
		c0.045,0.383-0.561,1.004-1.018,1.252C512.014,285.318,510.834,285.75,509.561,286.303z"/>
	<path d="M547.359,244.254c-0.756,0-1.561,0.172-2.258-0.031c-2.424-0.707-3.506-2.676-4.248-4.886
		c-0.18-0.534-0.279-1.095-0.453-1.792c-2.49,1.535-5.178,1.533-7.822,1.596c-1.072,0.025-2.195-0.238-3.217-0.596
		c-1.77-0.619-3.479-1.413-5.336-2.186c2.48-0.764,4.824-1.645,7.246-2.15c0.967-0.203,2.117,0.395,3.168,0.682
		c0.43,0.117,0.812,0.391,1.225,0.571c2.59,1.133,4.104,0.731,5.773-1.528c0.145-0.193,0.281-0.396,0.582-0.822
		c0.561,4.355,2.471,7.827,5.424,10.758C547.416,243.998,547.389,244.126,547.359,244.254z"/>
	<path d="M446.902,339.982c-0.084,0.777-0.055,1.258-0.197,1.68c-0.849,2.508-2.172,4.753-4.461,6.144
		c-1.776,1.078-2.367,2.38-1.965,4.389c0.252,1.254,0.152,2.577,0.211,3.87c-0.129,0.075-0.261,0.151-0.391,0.226
		c-0.529-0.465-1.059-0.932-1.643-1.448c0.013,0.001-0.086-0.036-0.146-0.003c-1.909,1.059-2.284,0.82-2.308-1.375
		c-0.018-1.646,0.336-3.139,1.253-4.542c0.288-0.438,0.057-1.188,0.196-1.761c0.117-0.482,0.305-1.089,0.668-1.345
		c1.677-1.173,3.437-2.225,5.14-3.358c0.849-0.564,1.632-1.222,2.459-1.817C445.994,340.441,446.312,340.307,446.902,339.982z"/>
	<path d="M506.387,387.831c0,0.859,0.139,1.753-0.051,2.568c-0.121,0.529-0.66,1.238-1.129,1.34
		c-0.475,0.103-1.455-0.317-1.588-0.72c-1.033-3.096-3.709-4.207-6.283-5.476c-0.771-0.379-1.564-0.733-2.279-1.203
		c-0.416-0.271-0.789-0.704-1.016-1.148c-0.346-0.684-0.121-1.228,0.725-1.277c0.688-0.037,1.402-0.084,2.07,0.048
		c2.445,0.487,4.871,1.067,7.312,1.577c2.135,0.445,2.25,0.552,2.283,2.693c0.008,0.531,0.002,1.064,0.002,1.598
		C506.416,387.831,506.402,387.831,506.387,387.831z"/>
	<path d="M415.266,306.058c0.486,2.836-1.062,5.072-2.156,7.437c-0.109,0.233-0.527,0.484-0.767,0.455
		c-0.241-0.031-0.565-0.371-0.632-0.631c-0.158-0.63-0.252-1.293-0.258-1.94c-0.023-3.814-0.035-7.629-0.004-11.443
		c0.008-0.964-0.041-2.284,1.164-2.397c1.035-0.098,1.412,1.092,1.619,2.024c0.475,2.148,0.898,4.308,1.344,6.464
		C415.473,306.035,415.369,306.047,415.266,306.058z"/>
	<path d="M552.34,238.375c0.611,2.818,1.324,5.621,1.805,8.463c0.422,2.488,0.623,5.017,0.836,7.535
		c0.062,0.752,0.312,1.916-0.756,2.018c-0.465,0.044-1.322-0.951-1.498-1.609c-0.459-1.717-0.594-3.517-0.947-5.266
		c-0.168-0.85-0.309-1.865-0.85-2.449c-1.273-1.377-1.24-2.894-0.887-4.484c0.246-1.109,0.646-2.19,1.047-3.258
		c0.143-0.377,0.486-0.679,0.738-1.015C552,238.33,552.17,238.353,552.34,238.375z"/>
	<path d="M558.639,271.531c0.785,2.261-1.248,3.472-2.27,5.111c-0.049,0.079-0.742-0.044-0.797-0.197
		c-0.805-2.19-2.123-4.24-1.496-6.802c0.297-1.202,0.076-2.522,0.223-3.774c0.059-0.53,0.453-1.021,0.695-1.53
		c0.58,0.278,1.439,0.405,1.693,0.864C557.746,267.115,559.047,268.996,558.639,271.531z"/>
	<path d="M555.766,248.109c0.49,0.332,0.752,0.42,0.877,0.604c1.533,2.252,2.889,4.587,2.963,7.416
		c0.01,0.426-0.217,0.86-0.346,1.289c-0.307,1.006-0.604,2.018-0.943,3.013c-0.133,0.391-0.377,0.745-0.568,1.116
		c-0.375-0.257-0.904-0.433-1.092-0.789c-0.355-0.676-0.672-1.444-0.73-2.195c-0.225-2.856-0.357-5.723-0.477-8.587
		C555.43,249.441,555.625,248.898,555.766,248.109z"/>
	<path d="M541.197,337.064c-0.34,0.93-0.529,2.146-0.838,2.178c-1.002,0.098-0.578-0.998-0.852-1.558
		c-0.516-1.059-0.992-2.137-1.566-3.162c-0.576-1.034,0.137-3.051,1.297-3.253c0.277-0.048,0.875,0.432,0.951,0.756"/>
	<path d="M442.647,309.055c0.242-1.152,0.847-1.654,1.913-1.66c2.428-0.009,4.857-0.033,6.908,1.562
		c0.374,0.291,0.609,0.758,0.91,1.143c-0.458,0.171-0.938,0.534-1.368,0.48c-1.899-0.233-3.787-0.569-5.672-0.905
		C444.459,309.519,443.597,309.275,442.647,309.055z"/>
</g>
</svg>
